<?xml version="1.0" encoding="UTF-8"?>
<svg width="100px" height="51px" viewBox="0 0 100 51" version="1.1" xmlns="http://www.w3.org/2000/svg" xmlns:xlink="http://www.w3.org/1999/xlink">
    <!-- Generator: Sketch 43.2 (39069) - http://www.bohemiancoding.com/sketch -->
    <title>jupy-logo</title>
    <desc>Created with Sketch.</desc>
    <defs></defs>
    <g id="Page-1" stroke="none" stroke-width="1" fill="none" fill-rule="evenodd">
        <g id="jupy-logo" fill-rule="nonzero">
            <g id="Loader">
                <rect id="Background" fill="#F9C20A" x="0.0191729323" y="0" width="50.9808271" height="50.9808271"></rect>
                <g id="W" transform="translate(6.902256, 5.751880)" fill="#5F6369">
                    <path d="M2.07834586,3.83458647 C3.15953205,3.83670437 4.03468675,4.71414781 4.03398079,5.79533584 C4.03327482,6.87652387 3.15697499,7.75282369 2.07578697,7.75352966 C0.994598942,7.75423563 0.117155497,6.87908092 0.115037594,5.79789474 C0.111953921,5.27625378 0.317811498,4.77508497 0.686673797,4.40622267 C1.0555361,4.03736037 1.55670491,3.83150279 2.07834586,3.83458647 L2.07834586,3.83458647 Z" id="Shape"></path>
                    <path d="M2.07834586,8.48593985 C3.16215146,8.48594192 4.04094575,9.36416705 4.04164998,10.4479724 C4.0423542,11.5317778 3.16470194,12.4111442 2.08089726,12.4125547 C0.997092585,12.4139652 0.117154402,11.5368862 0.115037594,10.4530827 C0.111962962,9.93109277 0.317699893,9.42953684 0.686448641,9.06006788 C1.05519739,8.69059892 1.55635092,8.48388374 2.07834586,8.48593985 L2.07834586,8.48593985 Z" id="Shape"></path>
                    <path d="M2.07834586,13.1411278 C3.16265108,13.1411278 4.04165414,14.0201309 4.04165414,15.1044361 C4.04165414,16.1887413 3.16265108,17.0677444 2.07834586,17.0677444 C0.994040648,17.0677444 0.115037594,16.1887413 0.115037594,15.1044361 C0.112989134,14.5831091 0.319179218,14.0825429 0.687815927,13.7139062 C1.05645264,13.3452694 1.55701886,13.1390794 2.07834586,13.1411278 L2.07834586,13.1411278 Z" id="Shape"></path>
                    <path d="M2.07834586,27.0990226 C3.16215146,27.0990246 4.04094575,27.9772498 4.04164998,29.0610551 C4.0423542,30.1448605 3.16470194,31.0242269 2.08089726,31.0256374 C0.997092585,31.027048 0.117154402,30.1499689 0.115037594,29.0661654 C0.111962962,28.5441755 0.317699893,28.0426196 0.686448641,27.6731506 C1.05519739,27.3036816 1.55635092,27.0969664 2.07834586,27.0990226 L2.07834586,27.0990226 Z" id="Shape"></path>
                    <path d="M2.07834586,22.4783459 C3.15953205,22.4804638 4.03468675,23.3579072 4.03398079,24.4390952 C4.03327482,25.5202833 3.15697499,26.3965831 2.07578697,26.3972891 C0.994598942,26.397995 0.117155497,25.5228403 0.115037594,24.4416541 C0.111953921,23.9200132 0.317811498,23.4188444 0.686673797,23.0499821 C1.0555361,22.6811198 1.55670491,22.4752622 2.07834586,22.4783459 L2.07834586,22.4783459 Z" id="Shape"></path>
                    <path d="M2.07834586,31.7542105 C3.16265108,31.7542105 4.04165414,32.6332136 4.04165414,33.7175188 C4.04165414,34.801824 3.16265108,35.6808271 2.07834586,35.6808271 C0.994040648,35.6808271 0.115037594,34.801824 0.115037594,33.7175188 C0.112989134,33.1961918 0.319179218,32.6956256 0.687815927,32.3269889 C1.05645264,31.9583522 1.55701886,31.7521621 2.07834586,31.7542105 Z" id="Shape"></path>
                    <path d="M3.26323308,1.15037594 C3.26323308,0.685092305 2.98295298,0.265623493 2.55308696,0.0875671543 C2.12322093,-0.0904891841 1.62842373,0.00793209838 1.29941851,0.336937312 C0.970413301,0.665942525 0.871992019,1.16073973 1.05004836,1.59060575 C1.2281047,2.02047178 1.64757351,2.30075188 2.11285714,2.30075188 C2.74819223,2.30075188 3.26323308,1.78571103 3.26323308,1.15037594 L3.26323308,1.15037594 Z" id="Shape"></path>
                    <path d="M3.24022556,19.7366165 C3.24022556,19.1012815 2.72518471,18.5862406 2.08984962,18.5862406 C1.45451454,18.5862406 0.939473684,19.1012815 0.939473684,19.7366165 C0.939473684,20.3719516 1.45451454,20.8869925 2.08984962,20.8869925 C2.72518471,20.8869925 3.24022556,20.3719516 3.24022556,19.7366165 Z" id="Shape"></path>
                </g>
                <g id="a" transform="translate(14.954887, 10.353383)" fill="#5F6369">
                    <path d="M2.30075188,3.90744361 C3.38455748,3.90744568 4.26335177,4.78567081 4.26405599,5.86947618 C4.26476022,6.95328155 3.38710796,7.83264797 2.30330328,7.83405849 C1.2194986,7.835469 0.339560417,6.95839 0.337443609,5.87458647 C0.334368977,5.35259653 0.540105908,4.8510406 0.908854656,4.48157164 C1.2776034,4.11210268 1.77875693,3.9053875 2.30075188,3.90744361 Z" id="Shape"></path>
                    <path d="M2.30075188,8.53962406 C3.3850571,8.53962406 4.26406015,9.41862711 4.26406015,10.5029323 C4.26406015,11.5872375 3.3850571,12.4662406 2.30075188,12.4662406 C1.21644666,12.4662406 0.337443609,11.5872375 0.337443609,10.5029323 C0.335395149,9.98160532 0.541585233,9.4810391 0.910221942,9.11240239 C1.27885865,8.74376568 1.77942487,8.5375756 2.30075188,8.53962406 L2.30075188,8.53962406 Z" id="Shape"></path>
                    <path d="M2.30075188,31.8270677 C3.38193806,31.8291856 4.25709277,32.706629 4.2563868,33.787817 C4.25568083,34.8690051 3.37938101,35.7453049 2.29819298,35.7460109 C1.21700496,35.7467168 0.339561512,34.8715621 0.337443609,33.7903759 C0.335395149,33.2690489 0.541585233,32.7684827 0.910221942,32.399846 C1.27885865,32.0312093 1.77942487,31.8250192 2.30075188,31.8270677 L2.30075188,31.8270677 Z" id="Shape"></path>
                    <path d="M2.30075188,0.0613533835 C1.66541679,0.0613533835 1.15037594,0.576394235 1.15037594,1.21172932 C1.15037594,1.84706441 1.66541679,2.36210526 2.30075188,2.36210526 C2.93608697,2.36210526 3.45112782,1.84706441 3.45112782,1.21172932 C3.45112782,0.576394235 2.93608697,0.0613533835 2.30075188,0.0613533835 L2.30075188,0.0613533835 Z" id="Shape"></path>
                    <path d="M2.30075188,13.9809023 C1.66541679,13.9809023 1.15037594,14.4959431 1.15037594,15.1312782 C1.15037594,15.7666133 1.66541679,16.2816541 2.30075188,16.2816541 C2.93608697,16.2816541 3.45112782,15.7666133 3.45112782,15.1312782 C3.45112782,14.4959431 2.93608697,13.9809023 2.30075188,13.9809023 L2.30075188,13.9809023 Z" id="Shape"></path>
                    <path d="M2.30075188,18.6514286 C1.66541679,18.6514286 1.15037594,19.1664694 1.15037594,19.8018045 C1.15037594,20.4371396 1.66541679,20.9521805 2.30075188,20.9521805 C2.93608697,20.9521805 3.45112782,20.4371396 3.45112782,19.8018045 C3.45112782,19.1664694 2.93608697,18.6514286 2.30075188,18.6514286 L2.30075188,18.6514286 Z" id="Shape"></path>
                    <path d="M2.2662406,23.3066165 C1.63090551,23.3066165 1.11586466,23.8216574 1.11586466,24.4569925 C1.11586466,25.0923276 1.63090551,25.6073684 2.2662406,25.6073684 C2.90157569,25.6073684 3.41661654,25.0923276 3.41661654,24.4569925 C3.41661654,23.8216574 2.90157569,23.3066165 2.2662406,23.3066165 Z" id="Shape"></path>
                    <path d="M2.30075188,27.9579699 C1.66541679,27.9579699 1.15037594,28.4730108 1.15037594,29.1083459 C1.15037594,29.743681 1.66541679,30.2587218 2.30075188,30.2587218 C2.93608697,30.2587218 3.45112782,29.743681 3.45112782,29.1083459 C3.45112782,28.4730108 2.93608697,27.9579699 2.30075188,27.9579699 L2.30075188,27.9579699 Z" id="Shape"></path>
                </g>
                <g id="n" transform="translate(23.390977, 5.751880)" fill="#5F6369">
                    <path d="M2.11285714,3.83458647 C3.19716236,3.83458647 4.07616541,4.71358952 4.07616541,5.79789474 C4.07616541,6.88219995 3.19716236,7.76120301 2.11285714,7.76120301 C1.02855193,7.76120301 0.149548872,6.88219995 0.149548872,5.79789474 C0.147500412,5.27656773 0.353690496,4.77600151 0.722327205,4.4073648 C1.09096391,4.03872809 1.59153013,3.83253801 2.11285714,3.83458647 Z" id="Shape"></path>
                    <path d="M2.11285714,8.50894737 C3.19666274,8.50894944 4.07545703,9.38717457 4.07616125,10.4709799 C4.07686548,11.5547853 3.19921322,12.4341517 2.11540854,12.4355622 C1.03160386,12.4369728 0.15166568,11.5598938 0.149548872,10.4760902 C0.14647424,9.95410028 0.352211171,9.45254436 0.720959919,9.0830754 C1.08970867,8.71360644 1.5908622,8.50689126 2.11285714,8.50894737 L2.11285714,8.50894737 Z" id="Shape"></path>
                    <path d="M2.11285714,17.8193233 C3.19404332,17.8214412 4.06919803,18.6988847 4.06849206,19.7800727 C4.0677861,20.8612607 3.19148627,21.7375605 2.11029825,21.7382665 C1.02911022,21.7389725 0.151666775,20.8638178 0.149548872,19.7826316 C0.146465199,19.2609906 0.352322776,18.7598218 0.721185075,18.3909595 C1.09004737,18.0220972 1.59121619,17.8162396 2.11285714,17.8193233 Z" id="Shape"></path>
                    <path d="M2.12052632,22.4783459 C3.2017125,22.4804638 4.0768672,23.3579072 4.07616124,24.4390952 C4.07545527,25.5202833 3.19915545,26.3965831 2.11796742,26.3972891 C1.03677939,26.397995 0.159335948,25.5228403 0.157218045,24.4416541 C0.154134372,23.9200132 0.359991949,23.4188444 0.728854248,23.0499821 C1.09771655,22.6811198 1.59888536,22.4752622 2.12052632,22.4783459 L2.12052632,22.4783459 Z" id="Shape"></path>
                    <path d="M2.11285714,27.1296992 C3.19716236,27.1296992 4.07616541,28.0087023 4.07616541,29.0930075 C4.07616541,30.1773127 3.19716236,31.0563158 2.11285714,31.0563158 C1.02855193,31.0563158 0.149548872,30.1773127 0.149548872,29.0930075 C0.147500412,28.5716805 0.353690496,28.0711143 0.722327205,27.7024776 C1.09096391,27.3338409 1.59153013,27.1276508 2.11285714,27.1296992 L2.11285714,27.1296992 Z" id="Shape"></path>
                    <path d="M2.11669173,0 C1.48135664,0 0.966315789,0.515040852 0.966315789,1.15037594 C0.966315789,1.78571103 1.48135664,2.30075188 2.11669173,2.30075188 C2.75202682,2.30075188 3.26706767,1.78571103 3.26706767,1.15037594 C3.26706767,0.515040852 2.75202682,0 2.11669173,0 Z" id="Shape"></path>
                    <path d="M2.1243609,13.9693985 C1.48902581,13.9693985 0.973984962,14.4844393 0.973984962,15.1197744 C0.973984962,15.7551095 1.48902581,16.2701504 2.1243609,16.2701504 C2.75969599,16.2701504 3.27473684,15.7551095 3.27473684,15.1197744 C3.27473684,14.4844393 2.75969599,13.9693985 2.1243609,13.9693985 L2.1243609,13.9693985 Z" id="Shape"></path>
                    <path d="M2.11669173,32.593985 C1.48135664,32.593985 0.966315789,33.1090258 0.966315789,33.7443609 C0.966315789,34.379696 1.48135664,34.8947368 2.11669173,34.8947368 C2.75202682,34.8947368 3.26706767,34.379696 3.26706767,33.7443609 C3.26706767,33.1090258 2.75202682,32.593985 2.11669173,32.593985 L2.11669173,32.593985 Z" id="Shape"></path>
                </g>
                <g id="d" transform="translate(31.827068, 10.353383)" fill="#5F6369">
                    <path d="M1.94413534,3.90744361 C2.73956866,3.89967693 3.46107799,4.3726503 3.77123158,5.105166 C4.08138517,5.8376817 3.91887977,6.68495468 3.35971506,7.25073673 C2.80055035,7.81651877 1.95524776,7.9889805 1.21913401,7.68746591 C0.483020265,7.38595131 0.00159157115,6.67005612 5.05972082e-15,5.87458647 C-0.00305997641,5.35591603 0.200051041,4.85727438 0.564649076,4.48836157 C0.92924711,4.11944877 1.4254648,3.91048564 1.94413534,3.90744361 Z" id="Shape"></path>
                    <path d="M1.94413534,8.56263158 C2.73991806,8.55485989 3.46167485,9.02824565 3.77160792,9.76123408 C4.08154098,10.4942225 3.91833424,11.3418017 3.35837198,11.9072863 C2.79840972,12.4727708 1.95247293,12.6442873 1.21647833,12.3415622 C0.480483736,12.0388371 3.79485824e-05,11.3217605 7.20834525e-15,10.5259398 C-0.00305891859,10.0076252 0.200173618,9.5093796 0.564881009,9.14107549 C0.9295884,8.77277138 1.42581566,8.56465919 1.94413534,8.56263158 Z" id="Shape"></path>
                    <path d="M1.94413534,22.5205263 C2.73991806,22.5127546 3.46167485,22.9861404 3.77160792,23.7191288 C4.08154098,24.4521172 3.91833424,25.2996964 3.35837198,25.865181 C2.79840972,26.4306656 1.95247293,26.602182 1.21647833,26.2994569 C0.480483736,25.9967318 3.79485824e-05,25.2796553 -7.3378803e-15,24.4838346 C-0.00424838244,23.4052514 0.865562418,22.5268626 1.94413534,22.5205263 Z" id="Shape"></path>
                    <path d="M1.94796992,0.0536842105 C1.31263484,0.0536842105 0.797593985,0.568725062 0.797593985,1.20406015 C0.797593985,1.83939524 1.31263484,2.35443609 1.94796992,2.35443609 C2.58330501,2.35443609 3.09834586,1.83939524 3.09834586,1.20406015 C3.09834586,0.568725062 2.58330501,0.0536842105 1.94796992,0.0536842105 Z" id="Shape"></path>
                    <path d="M1.94796992,14.0192481 C1.31263484,14.0192481 0.797593985,14.534289 0.797593985,15.1696241 C0.797593985,15.8049591 1.31263484,16.32 1.94796992,16.32 C2.58330501,16.32 3.09834586,15.8049591 3.09834586,15.1696241 C3.09834586,14.534289 2.58330501,14.0192481 1.94796992,14.0192481 Z" id="Shape"></path>
                    <path d="M1.94796992,18.6706015 C1.31263484,18.6706015 0.797593985,19.1856424 0.797593985,19.8209774 C0.797593985,20.4563125 1.31263484,20.9713534 1.94796992,20.9713534 C2.58330501,20.9713534 3.09834586,20.4563125 3.09834586,19.8209774 C3.09834586,19.1856424 2.58330501,18.6706015 1.94796992,18.6706015 Z" id="Shape"></path>
                    <path d="M1.94796992,27.9924812 C1.31263484,27.9924812 0.797593985,28.5075221 0.797593985,29.1428571 C0.797593985,29.7781922 1.31263484,30.2932331 1.94796992,30.2932331 C2.58330501,30.2932331 3.09834586,29.7781922 3.09834586,29.1428571 C3.09834586,28.5075221 2.58330501,27.9924812 1.94796992,27.9924812 L1.94796992,27.9924812 Z" id="Shape"></path>
                    <path d="M1.94796992,32.64 C1.31263484,32.64 0.797593985,33.1550409 0.797593985,33.7903759 C0.797593985,34.425711 1.31263484,34.9407519 1.94796992,34.9407519 C2.58330501,34.9407519 3.09834586,34.425711 3.09834586,33.7903759 C3.09834586,33.1550409 2.58330501,32.64 1.94796992,32.64 Z" id="Shape"></path>
                </g>
                <g id="B" transform="translate(39.879699, 5.751880)" fill="#5F6369">
                    <path d="M2.15503759,3.83458647 C3.23934281,3.83458647 4.11834586,4.71358952 4.11834586,5.79789474 C4.11834586,6.88219995 3.23934281,7.76120301 2.15503759,7.76120301 C1.07073238,7.76120301 0.191729323,6.88219995 0.191729323,5.79789474 C0.189680863,5.27656773 0.395870947,4.77600151 0.764507657,4.4073648 C1.13314437,4.03872809 1.63371058,3.83253801 2.15503759,3.83458647 L2.15503759,3.83458647 Z" id="Shape"></path>
                    <path d="M2.16270677,8.50894737 C3.24601074,8.51106527 4.12288225,9.39022552 4.12217628,10.4735313 C4.12147031,11.5568371 3.24345369,12.4348538 2.16014788,12.4355597 C1.07684206,12.4362657 0.197681812,11.5593942 0.19556391,10.4760902 C0.192480301,9.95343229 0.398741899,9.45128817 0.768323305,9.08170676 C1.13790471,8.71212536 1.64004883,8.50586376 2.16270677,8.50894737 Z" id="Shape"></path>
                    <path d="M2.15503759,27.1296992 C3.23934281,27.1296992 4.11834586,28.0087023 4.11834586,29.0930075 C4.11834586,30.1773127 3.23934281,31.0563158 2.15503759,31.0563158 C1.07073238,31.0563158 0.191729323,30.1773127 0.191729323,29.0930075 C0.189680863,28.5716805 0.395870947,28.0711143 0.764507657,27.7024776 C1.13314437,27.3338409 1.63371058,27.1276508 2.15503759,27.1296992 L2.15503759,27.1296992 Z" id="Shape"></path>
                    <path d="M2.15887218,0 C1.52353709,0 1.00849624,0.515040852 1.00849624,1.15037594 C1.00849624,1.78571103 1.52353709,2.30075188 2.15887218,2.30075188 C2.79420727,2.30075188 3.30924812,1.78571103 3.30924812,1.15037594 C3.30924812,0.515040852 2.79420727,0 2.15887218,0 Z" id="Shape"></path>
                    <path d="M2.15887218,13.9693985 C1.52353709,13.9693985 1.00849624,14.4844393 1.00849624,15.1197744 C1.00849624,15.7551095 1.52353709,16.2701504 2.15887218,16.2701504 C2.79420727,16.2701504 3.30924812,15.7551095 3.30924812,15.1197744 C3.30924812,14.4844393 2.79420727,13.9693985 2.15887218,13.9693985 L2.15887218,13.9693985 Z" id="Shape"></path>
                    <path d="M2.15887218,18.6207519 C1.52353709,18.6207519 1.00849624,19.1357927 1.00849624,19.7711278 C1.00849624,20.4064629 1.52353709,20.9215038 2.15887218,20.9215038 C2.79420727,20.9215038 3.30924812,20.4064629 3.30924812,19.7711278 C3.30924812,19.1357927 2.79420727,18.6207519 2.15887218,18.6207519 Z" id="Shape"></path>
                    <path d="M2.15887218,23.2721053 C1.52353709,23.2721053 1.00849624,23.7871461 1.00849624,24.4224812 C1.00849624,25.0578163 1.52353709,25.5728571 2.15887218,25.5728571 C2.79420727,25.5728571 3.30924812,25.0578163 3.30924812,24.4224812 C3.30924812,23.7871461 2.79420727,23.2721053 2.15887218,23.2721053 Z" id="Shape"></path>
                    <path d="M2.15887218,32.593985 C1.52353709,32.593985 1.00849624,33.1090258 1.00849624,33.7443609 C1.00849624,34.379696 1.52353709,34.8947368 2.15887218,34.8947368 C2.79420727,34.8947368 3.30924812,34.379696 3.30924812,33.7443609 C3.30924812,33.1090258 2.79420727,32.593985 2.15887218,32.593985 L2.15887218,32.593985 Z" id="Shape"></path>
                </g>
            </g>
            <g id="jupyter" transform="translate(61.000000, 0.000000)">
                <g id="path" transform="translate(31.000000, 0.000000)" fill="#767677">
                    <g id="path7-fill">
                        <g id="path0_fill-link" transform="translate(0.300000, 0.310000)">
                            <path d="M5.89353,2.844 C5.91889,3.43165 5.77085,4.01367 5.46815,4.51645 C5.16545,5.01922 4.72168,5.42015 4.19299,5.66851 C3.6643,5.91688 3.07444,6.00151 2.49805,5.91171 C1.92166,5.8219 1.38463,5.5617 0.954898,5.16401 C0.52517,4.76633 0.222056,4.24903 0.0839037,3.67757 C-0.0542483,3.10611 -0.02123,2.50617 0.178781,1.95364 C0.378793,1.4011 0.736809,0.920817 1.20754,0.573538 C1.67826,0.226259 2.24055,0.0275919 2.82326,0.00267229 C3.60389,-0.0307115 4.36573,0.249789 4.94142,0.782551 C5.51711,1.31531 5.85956,2.05676 5.89353,2.844 Z" id="path0_fill"></path>
                        </g>
                    </g>
                </g>
                <g id="path" transform="translate(1.000000, 30.000000)" fill="#F37726">
                    <g id="path8-fill">
                        <g id="path1_fill-link" transform="translate(0.740000, 0.980000)">
                            <path d="M18.2646,7.13411 C10.4145,7.13411 3.55872,4.2576 0,0 C1.32539,3.8204 3.79556,7.13081 7.0686,9.47303 C10.3417,11.8152 14.2557,13.0734 18.269,13.0734 C22.2823,13.0734 26.1963,11.8152 29.4694,9.47303 C32.7424,7.13081 35.2126,3.8204 36.538,0 C32.9705,4.2576 26.1148,7.13411 18.2646,7.13411 Z" id="path1_fill"></path>
                        </g>
                    </g>
                </g>
                <g id="path" transform="translate(1.000000, 4.000000)" fill="#F37726">
                    <g id="path9-fill">
                        <g id="path2_fill-link" transform="translate(0.730000, 0.480000)">
                            <path d="M18.2733,5.93931 C26.1235,5.93931 32.9793,8.81583 36.538,13.0734 C35.2126,9.25303 32.7424,5.94262 29.4694,3.6004 C26.1963,1.25818 22.2823,0 18.269,0 C14.2557,0 10.3417,1.25818 7.0686,3.6004 C3.79556,5.94262 1.32539,9.25303 0,13.0734 C3.56745,8.82463 10.4232,5.93931 18.2733,5.93931 Z" id="path2_fill"></path>
                        </g>
                    </g>
                </g>
                <g id="path" transform="translate(1.000000, 42.000000)" fill="#989798">
                    <g id="path10-fill">
                        <g id="path3_fill-link" transform="translate(0.800000, 0.810000)">
                            <path d="M7.42789,3.58338 C7.46008,4.3243 7.27355,5.05819 6.89193,5.69213 C6.51031,6.32607 5.95075,6.83156 5.28411,7.1446 C4.61747,7.45763 3.87371,7.56414 3.14702,7.45063 C2.42032,7.33712 1.74336,7.0087 1.20184,6.50695 C0.660328,6.0052 0.27861,5.35268 0.105017,4.63202 C-0.0685757,3.91135 -0.0262361,3.15494 0.226675,2.45856 C0.479587,1.76217 0.931697,1.15713 1.52576,0.720033 C2.11983,0.282935 2.82914,0.0334395 3.56389,0.00313344 C4.54667,-0.0374033 5.50529,0.316706 6.22961,0.987835 C6.95393,1.65896 7.38484,2.59235 7.42789,3.58338 L7.42789,3.58338 Z" id="path3_fill"></path>
                        </g>
                    </g>
                </g>
                <g id="path" transform="translate(0.000000, 5.000000)" fill="#6F7070">
                    <g id="path11-fill">
                        <g id="path4_fill-link" transform="translate(0.360000, 0.060000)">
                            <path d="M2.27471,4.39629 C1.84363,4.41508 1.41671,4.30445 1.04799,4.07843 C0.679268,3.8524 0.385328,3.52114 0.203371,3.12656 C0.0214136,2.73198 -0.0403798,2.29183 0.0258116,1.86181 C0.0920031,1.4318 0.283204,1.03126 0.575213,0.710883 C0.867222,0.39051 1.24691,0.164708 1.66622,0.0620592 C2.08553,-0.0405897 2.52561,-0.0154714 2.93076,0.134235 C3.33591,0.283941 3.68792,0.551505 3.94222,0.90306 C4.19652,1.25462 4.34169,1.67436 4.35935,2.10916 C4.38299,2.69107 4.17678,3.25869 3.78597,3.68746 C3.39516,4.11624 2.85166,4.37116 2.27471,4.39629 L2.27471,4.39629 Z" id="path4_fill"></path>
                        </g>
                    </g>
                </g>
            </g>
        </g>
    </g>
</svg>